HIERARCHY
ROOT hip
{
	OFFSET 0.000000 0.000000 0.000000 
	CHANNELS 6 Xposition Yposition Zposition Xrotation Zrotation Yrotation
	JOINT abdomen
	{
		OFFSET 0.000000 3.402643 0.000000 
		CHANNELS 3 Xrotation Zrotation Yrotation
		JOINT chest
		{
			OFFSET 0.000000 8.438565 -0.680529 
			CHANNELS 3 Xrotation Zrotation Yrotation
			JOINT neck
			{
				OFFSET 0.000000 10.207942 -0.272212 
				CHANNELS 3 Xrotation Zrotation Yrotation
				JOINT head
				{
					OFFSET 0.000000 3.130431 0.000000 
					CHANNELS 3 Xrotation Zrotation Yrotation
					End Site
					{
						OFFSET 0.000000 3.130435 0.000000 
					}
				}
			}
			JOINT lCollar
			{
				OFFSET 3.470700 6.669187 -0.816635 
				CHANNELS 3 Yrotation Zrotation Xrotation
				JOINT lShldr
				{
					OFFSET 3.198488 0.000000 0.000000 
					CHANNELS 3 Zrotation Yrotation Xrotation
					JOINT lForeArm
					{
						OFFSET 10.139888 0.000000 0.000000 
						CHANNELS 3 Yrotation Zrotation Xrotation
						JOINT lHand
						{
							OFFSET 8.370511 0.000000 0.000000 
							CHANNELS 3 Zrotation Yrotation Xrotation
							End Site
							{
								OFFSET 4.083176 0.000000 0.000000 
							}
						}
					}
				}
			}
			JOINT rCollar
			{
				OFFSET -3.470700 6.669187 -0.816635 
				CHANNELS 3 Yrotation Zrotation Xrotation
				JOINT rShldr
				{
					OFFSET -3.198488 0.000000 0.000000 
					CHANNELS 3 Zrotation Yrotation Xrotation
					JOINT rForeArm
					{
						OFFSET -10.139888 0.000000 0.000000 
						CHANNELS 3 Yrotation Zrotation Xrotation
						JOINT rHand
						{
							OFFSET -8.370511 0.000000 0.000000 
							CHANNELS 3 Zrotation Yrotation Xrotation
							End Site
							{
								OFFSET -4.083176 0.000000 0.000000 
							}
						}
					}
				}
			}
		}
	}
	JOINT lThigh
	{
		OFFSET 5.308129 -1.633274 1.361059 
		CHANNELS 3 Xrotation Zrotation Yrotation
		JOINT lShin
		{
			OFFSET -2.041588 -20.007561 0.000000 
			CHANNELS 3 Xrotation Zrotation Yrotation
			JOINT lFoot
			{
				OFFSET 0.000000 -19.190928 -1.224953 
				CHANNELS 3 Xrotation Yrotation Zrotation
				End Site
				{
					OFFSET 0.000000 -2.449906 4.627600 
				}
			}
		}
	}
	JOINT rThigh
	{
		OFFSET -5.308129 -1.633274 1.361059 
		CHANNELS 3 Xrotation Zrotation Yrotation
		JOINT rShin
		{
			OFFSET 2.041588 -20.007561 0.000000 
			CHANNELS 3 Xrotation Zrotation Yrotation
			JOINT rFoot
			{
				OFFSET 0.000000 -19.190928 -1.224953 
				CHANNELS 3 Xrotation Yrotation Zrotation
				End Site
				{
					OFFSET 0.000000 -2.449906 4.627600 
				}
			}
		}
	}
}
MOTION
Frames: 6
Frame Time: 0.033333
-68.198822 40.866047 107.672966 6.750925 -1.098132 70.527649 0.000000 0.000000 0.000000 1.221552 -11.090456 45.389256 -14.543571 1.471834 -3.516721 30.707598 -6.002216 -2.003727 -3.521967 9.154817 6.304141 27.493074 -60.140656 -45.003468 -16.269190 4.990161 40.563747 46.473148 17.234083 -6.690128 3.089181 -14.089146 8.026228 -27.997240 123.136948 -44.970352 43.358635 4.993324 44.997925 -25.316254 -25.956450 -6.496854 -53.732201 3.836291 7.092725 33.786144 -6.232170 -19.431028 -8.847854 -0.006514 1.406522 35.138992 -20.624765 -31.118851 22.663212 -2.114630 24.967495 28.256136 1.007067 5.789285 
-64.622841 40.785355 108.463676 5.850745 -3.900785 68.706566 0.000000 0.000000 0.000000 -3.568999 -9.580094 50.540321 -18.652122 1.081841 -3.603979 33.626438 -3.766555 -2.280737 -3.521967 9.154817 6.304141 29.527645 -58.751190 -45.001167 -16.119520 4.991047 40.381084 45.495152 16.628387 -6.953590 3.089181 -14.089146 8.026228 -24.037657 122.993637 -44.975796 45.538437 4.992427 45.002533 -24.491867 -25.929474 -6.605863 -55.784775 6.717130 7.678013 37.802719 -6.644081 -20.441624 -1.622617 0.333455 -3.406872 35.225685 -19.755161 -29.608891 14.069612 -2.192272 24.953127 48.217617 7.407569 18.025433 
-61.480190 40.267147 109.048302 6.051619 -4.196839 71.067711 0.000000 0.000000 0.000000 -5.020680 -10.577784 48.176220 -20.264120 0.575404 -2.959129 33.523972 -3.864824 -2.006614 -3.521967 9.154817 6.304141 32.334854 -55.076271 -45.012878 -16.111534 5.001671 41.588692 45.040794 17.209576 -6.774341 3.089181 -14.089146 8.026228 -16.817219 122.537613 -44.987957 46.837856 4.987508 44.998779 -24.433052 -26.549948 -6.524091 -57.851048 6.084033 9.050599 47.029053 -6.726256 -24.309568 1.679243 0.281456 -5.496152 34.756775 -19.257488 -28.881516 17.261528 -3.938943 24.989853 51.945332 9.318182 21.460859 
-58.525177 39.800186 109.581291 6.577148 -1.917598 76.352066 0.000000 0.000000 0.000000 -3.126855 -13.130692 41.712013 -20.005785 1.619815 -2.276137 31.868359 -4.979958 -0.823997 -3.521967 9.154817 6.304141 34.927418 -52.521244 -45.004189 -17.217360 4.993666 41.276443 43.856274 16.688866 -7.016284 3.089181 -14.089146 8.026228 -13.380677 122.976570 -44.982746 47.881184 4.988775 45.000168 -26.056110 -26.679132 -6.223932 -55.481030 2.362064 10.415257 52.432457 -6.751446 -24.962168 2.005022 0.294178 -5.579901 32.200562 -19.296181 -27.761276 34.205387 -5.629061 24.955400 38.284058 3.417754 11.302114 
-55.864532 39.769508 109.931702 7.817376 -0.856216 80.222534 0.000000 0.000000 0.000000 -3.524068 -15.488023 36.895897 -16.454624 3.143317 -1.593685 28.642694 -4.257535 0.655391 -3.521967 9.154817 6.304141 36.719780 -52.331314 -45.014725 -18.010166 4.997820 40.813087 43.022858 15.936640 -7.297948 3.089181 -14.089146 8.026228 -15.416183 125.000305 -44.984867 46.302254 4.989389 44.998688 -27.093294 -29.977638 -4.937791 -53.299931 -0.663917 11.704337 57.342300 -6.961469 -24.980350 -2.947957 0.264532 -1.874760 26.823872 -20.566294 -27.104229 47.481003 -6.816812 24.908085 25.116121 1.086692 5.135229 
-53.695095 39.887402 110.350853 7.818676 -1.568197 83.134880 0.000000 0.000000 0.000000 -5.253294 -16.378006 33.257427 -14.817510 4.715724 -1.224599 28.857960 -4.158238 1.742201 -3.521967 9.154817 6.304141 38.011845 -52.668972 -45.007050 -18.079744 4.993466 43.122295 43.401344 16.024742 -7.261671 3.089181 -14.089146 8.026228 -22.336885 125.000710 -44.991779 52.673000 4.982698 44.999451 -24.915541 -24.003622 -6.884737 -52.022705 -1.807779 12.067407 60.537552 -6.675308 -24.951880 -6.947456 -0.052539 1.237825 17.944035 -20.602827 -24.793303 59.514874 -8.313156 16.040619 14.985598 0.257295 2.438260 
